<svg xmlns="http://www.w3.org/2000/svg" xmlns:xlink="http://www.w3.org/1999/xlink" width="84" height="84" viewBox="0 0 84 84">
  <defs>
    <clipPath id="clip-path">
      <rect id="Rectangle_25927" data-name="Rectangle 25927" width="84" height="84" transform="translate(-0.267)" fill="#fff" stroke="#707070" stroke-width="1"/>
    </clipPath>
  </defs>
  <g id="Mask_Group_21295" data-name="Mask Group 21295" transform="translate(0.267)" clip-path="url(#clip-path)">
    <path id="Path_96341" data-name="Path 96341" d="M80.812-713.641a8.256,8.256,0,0,1-6.08-2.506,8.3,8.3,0,0,1-2.494-6.084h-1.9a2.567,2.567,0,0,1-1.89-.763,2.567,2.567,0,0,1-.763-1.89v-29.81a5.139,5.139,0,0,1,1.519-3.787A5.139,5.139,0,0,1,73-760h38.147a5.109,5.109,0,0,1,3.747,1.558,5.109,5.109,0,0,1,1.558,3.747v6.568h4.926a5.275,5.275,0,0,1,2.388.563A5.09,5.09,0,0,1,125.619-746l9.247,12.449a2.345,2.345,0,0,1,.4.729,2.705,2.705,0,0,1,.133.862v7.08a2.567,2.567,0,0,1-.763,1.89,2.567,2.567,0,0,1-1.89.763h-2.653a8.276,8.276,0,0,1-2.509,6.084,8.3,8.3,0,0,1-6.095,2.506,8.254,8.254,0,0,1-6.08-2.506,8.3,8.3,0,0,1-2.5-6.084H89.417a8.265,8.265,0,0,1-2.51,6.095A8.321,8.321,0,0,1,80.812-713.641Zm.015-3.284a5.119,5.119,0,0,0,3.761-1.544,5.119,5.119,0,0,0,1.544-3.761,5.119,5.119,0,0,0-1.544-3.761,5.119,5.119,0,0,0-3.761-1.544,5.119,5.119,0,0,0-3.761,1.544,5.12,5.12,0,0,0-1.544,3.761,5.12,5.12,0,0,0,1.544,3.761A5.119,5.119,0,0,0,80.827-716.925Zm-9.853-8.59H73.1a7.447,7.447,0,0,1,2.855-3.739,8.081,8.081,0,0,1,4.875-1.567,8.284,8.284,0,0,1,4.813,1.535,7.176,7.176,0,0,1,2.918,3.77h24.606v-29.179a1.97,1.97,0,0,0-.568-1.453,1.97,1.97,0,0,0-1.453-.568H73a1.934,1.934,0,0,0-1.39.631,1.932,1.932,0,0,0-.631,1.39v29.179Zm50.527,8.59a5.116,5.116,0,0,0,3.76-1.544,5.119,5.119,0,0,0,1.544-3.761,5.119,5.119,0,0,0-1.544-3.761,5.116,5.116,0,0,0-3.76-1.544,5.119,5.119,0,0,0-3.761,1.544,5.119,5.119,0,0,0-1.544,3.761,5.119,5.119,0,0,0,1.544,3.761A5.119,5.119,0,0,0,121.5-716.925Zm-5.053-15.158h15.474l-9.032-11.937a2.458,2.458,0,0,0-.727-.6,1.9,1.9,0,0,0-.915-.221h-4.8ZM92.07-741.115Z" transform="translate(-59.508 779.094)" fill="#5f6368"/>
  </g>
</svg>
