<svg xmlns="http://www.w3.org/2000/svg" xmlns:xlink="http://www.w3.org/1999/xlink" width="84" height="84" viewBox="0 0 84 84">
  <defs>
    <clipPath id="clip-path">
      <rect id="Rectangle_25930" data-name="Rectangle 25930" width="84" height="84" transform="translate(-0.255)" fill="#fff" stroke="#707070" stroke-width="1"/>
    </clipPath>
  </defs>
  <g id="Mask_Group_21298" data-name="Mask Group 21298" transform="translate(0.255)" clip-path="url(#clip-path)">
    <path id="Path_96342" data-name="Path 96342" d="M137.285-768.421v2.128a1.487,1.487,0,0,0,.432,1.1,1.483,1.483,0,0,0,1.094.433,1.492,1.492,0,0,0,1.1-.433,1.482,1.482,0,0,0,.435-1.1v-7.314a1.486,1.486,0,0,0-.432-1.1,1.479,1.479,0,0,0-1.093-.434,1.49,1.49,0,0,0-1.1.434,1.48,1.48,0,0,0-.436,1.1v2.128h-3.657a1.489,1.489,0,0,0-1.1.432,1.484,1.484,0,0,0-.433,1.094,1.492,1.492,0,0,0,.433,1.1,1.484,1.484,0,0,0,1.1.435Zm8.045,0H168.6a1.489,1.489,0,0,0,1.1-.432,1.48,1.48,0,0,0,.433-1.093,1.492,1.492,0,0,0-.433-1.1,1.482,1.482,0,0,0-1.1-.436H145.33a1.487,1.487,0,0,0-1.1.432,1.482,1.482,0,0,0-.434,1.094,1.49,1.49,0,0,0,.434,1.1A1.482,1.482,0,0,0,145.33-768.421Zm19.612-11.7H168.6a1.489,1.489,0,0,0,1.1-.432,1.483,1.483,0,0,0,.433-1.094,1.492,1.492,0,0,0-.433-1.1,1.484,1.484,0,0,0-1.1-.435h-3.657v-2.128a1.487,1.487,0,0,0-.432-1.1,1.483,1.483,0,0,0-1.094-.433,1.492,1.492,0,0,0-1.1.433,1.482,1.482,0,0,0-.435,1.1v7.313a1.486,1.486,0,0,0,.432,1.095,1.478,1.478,0,0,0,1.093.434,1.49,1.49,0,0,0,1.1-.434,1.479,1.479,0,0,0,.436-1.095Zm-31.313,0H156.9a1.487,1.487,0,0,0,1.1-.432,1.481,1.481,0,0,0,.434-1.094,1.49,1.49,0,0,0-.434-1.1,1.482,1.482,0,0,0-1.1-.435H133.629a1.489,1.489,0,0,0-1.1.432,1.48,1.48,0,0,0-.433,1.093,1.492,1.492,0,0,0,.433,1.1A1.482,1.482,0,0,0,133.629-780.122ZM125.585-751.6a5.409,5.409,0,0,1-3.986-1.6,5.41,5.41,0,0,1-1.6-3.986v-37.229a5.41,5.41,0,0,1,1.6-3.986,5.409,5.409,0,0,1,3.986-1.6h51.057a5.409,5.409,0,0,1,3.986,1.6,5.409,5.409,0,0,1,1.6,3.986v37.229a5.41,5.41,0,0,1-1.6,3.986,5.409,5.409,0,0,1-3.986,1.6H161.485v4.122a2.7,2.7,0,0,1-.8,1.989,2.7,2.7,0,0,1-1.99.8H143.535a2.7,2.7,0,0,1-1.99-.8,2.7,2.7,0,0,1-.8-1.989V-751.6Zm0-3.457h51.057a2.034,2.034,0,0,0,1.463-.665,2.034,2.034,0,0,0,.665-1.463v-37.229a2.033,2.033,0,0,0-.665-1.463,2.034,2.034,0,0,0-1.463-.665H125.585a2.034,2.034,0,0,0-1.463.665,2.033,2.033,0,0,0-.665,1.463v37.229a2.033,2.033,0,0,0,.665,1.463A2.034,2.034,0,0,0,125.585-755.058Zm-2.128,0v0Z" transform="translate(-109.368 814.343)" fill="#5f6368"/>
  </g>
</svg>
