<svg xmlns="http://www.w3.org/2000/svg" xmlns:xlink="http://www.w3.org/1999/xlink" width="84" height="84" viewBox="0 0 84 84">
  <defs>
    <clipPath id="clip-path">
      <rect id="Rectangle_25925" data-name="Rectangle 25925" width="84" height="84" transform="translate(0.262)" fill="#fff" stroke="#707070" stroke-width="1"/>
    </clipPath>
  </defs>
  <g id="Mask_Group_21293" data-name="Mask Group 21293" transform="translate(-0.262)" clip-path="url(#clip-path)">
    <path id="Path_96339" data-name="Path 96339" d="M167.173-775.349l8.989-14.835a2.48,2.48,0,0,1,1.053-.995,3.061,3.061,0,0,1,1.293-.281,3.061,3.061,0,0,1,1.293.281,2.48,2.48,0,0,1,1.053.995l8.989,14.835a2.59,2.59,0,0,1,.441,1.429,2.745,2.745,0,0,1-.356,1.378,2.694,2.694,0,0,1-.96.994,2.651,2.651,0,0,1-1.406.367H169.454a2.655,2.655,0,0,1-1.42-.374,2.64,2.64,0,0,1-.946-.987,2.622,2.622,0,0,1-.356-1.351A2.739,2.739,0,0,1,167.173-775.349Zm29.87,41.237a12.141,12.141,0,0,1-8.927-3.645,12.141,12.141,0,0,1-3.645-8.927,12.141,12.141,0,0,1,3.645-8.927,12.141,12.141,0,0,1,8.927-3.645,12.141,12.141,0,0,1,8.927,3.645,12.141,12.141,0,0,1,3.645,8.927,12.141,12.141,0,0,1-3.645,8.927A12.141,12.141,0,0,1,197.042-734.112Zm-46.272-4.409v-16.344a2.608,2.608,0,0,1,.783-1.933,2.652,2.652,0,0,1,1.941-.774h16.344a2.608,2.608,0,0,1,1.933.783,2.652,2.652,0,0,1,.774,1.941V-738.5a2.608,2.608,0,0,1-.783,1.933,2.653,2.653,0,0,1-1.941.774H153.477a2.608,2.608,0,0,1-1.933-.783A2.652,2.652,0,0,1,150.77-738.521Zm46.271,1.039a8.89,8.89,0,0,0,6.534-2.668,8.882,8.882,0,0,0,2.67-6.533,8.89,8.89,0,0,0-2.668-6.534,8.882,8.882,0,0,0-6.533-2.67,8.89,8.89,0,0,0-6.534,2.668,8.881,8.881,0,0,0-2.67,6.533,8.89,8.89,0,0,0,2.668,6.534A8.881,8.881,0,0,0,197.041-737.482Zm-42.9-1.685h15.035V-754.2H154.14Zm16.371-35.385H186.5l-8-12.819ZM178.508-774.552ZM169.175-754.2ZM197.042-746.685Z" transform="translate(-138.37 804.987)" fill="#5f6368"/>
  </g>
</svg>
