<svg xmlns="http://www.w3.org/2000/svg" xmlns:xlink="http://www.w3.org/1999/xlink" width="84" height="84" viewBox="0 0 84 84">
  <defs>
    <clipPath id="clip-path">
      <rect id="Rectangle_25926" data-name="Rectangle 25926" width="84" height="84" transform="translate(0.206)" fill="#fff" stroke="#707070" stroke-width="1"/>
    </clipPath>
  </defs>
  <g id="Mask_Group_21294" data-name="Mask Group 21294" transform="translate(-0.206)" clip-path="url(#clip-path)">
    <path id="Path_96340" data-name="Path 96340" d="M96.31-802.8a4.455,4.455,0,0,1-3.277-1.333,4.455,4.455,0,0,1-1.332-3.277,4.456,4.456,0,0,1,1.332-3.277,4.456,4.456,0,0,1,3.277-1.332,4.453,4.453,0,0,1,3.276,1.332,4.454,4.454,0,0,1,1.333,3.277,4.454,4.454,0,0,1-1.333,3.277A4.452,4.452,0,0,1,96.31-802.8Zm28.838,0a4.452,4.452,0,0,1-3.276-1.333,4.454,4.454,0,0,1-1.333-3.277,4.454,4.454,0,0,1,1.333-3.277,4.453,4.453,0,0,1,3.276-1.332,4.456,4.456,0,0,1,3.277,1.332,4.456,4.456,0,0,1,1.332,3.277,4.455,4.455,0,0,1-1.332,3.277A4.455,4.455,0,0,1,125.148-802.8ZM91.925-850.781l8.2,17.256h20.387a1.706,1.706,0,0,0,.946-.267,2.314,2.314,0,0,0,.709-.738l8.037-14.6a1.114,1.114,0,0,0,.059-1.152,1.071,1.071,0,0,0-1-.5Zm-1.5-3.073h40.007a3.315,3.315,0,0,1,3.014,1.634,3.2,3.2,0,0,1,.107,3.366l-8.782,16a4.968,4.968,0,0,1-1.735,1.761,4.476,4.476,0,0,1-2.343.638H98.745L95.01-823.6a1.4,1.4,0,0,0-.029,1.536,1.426,1.426,0,0,0,1.33.827h31.911a1.488,1.488,0,0,1,1.1.44,1.488,1.488,0,0,1,.44,1.1,1.487,1.487,0,0,1-.44,1.1,1.486,1.486,0,0,1-1.1.441H96.31a4.345,4.345,0,0,1-4.012-2.266,4.338,4.338,0,0,1-.065-4.553l4.621-8.238-11.3-23.709H81.536a1.488,1.488,0,0,1-1.1-.44,1.488,1.488,0,0,1-.44-1.1,1.488,1.488,0,0,1,.44-1.1,1.488,1.488,0,0,1,1.1-.44h4.4a2.419,2.419,0,0,1,1.317.373,2.479,2.479,0,0,1,.916,1.039Zm9.7,20.329h0Z" transform="translate(-64.468 873.527)" fill="#5f6368"/>
  </g>
</svg>
